<?xml version="1.0" encoding="utf-8"?>
<svg id="master-artboard" viewBox="0 0 152.9145965576172 154.156005859375" xmlns="http://www.w3.org/2000/svg" width="152.9145965576172px" height="154.156005859375px"><rect id="ee-background" x="0" y="0" width="152.9145965576172" height="154.156005859375" style="fill: rgb(126, 121, 128); fill-opacity: 0; pointer-events: none;"/><defs><radialGradient id="gradient-0" gradientUnits="objectBoundingBox" cx="0.5" cy="0.5" r="0.5">
                <stop offset="0" style="stop-color: #7e7980"/>
                <stop offset="1" style="stop-color: #4a474b"/>
              </radialGradient></defs><title>free-hvac-vector-icons</title><path d="M 493 307.5 A 45 45 0 0 1 448 352.5 A 45 45 0 0 1 403 307.5 A 45 45 0 0 1 448 262.5 A 45 45 0 0 1 493 307.5 Z" class="cls-2" style="fill: rgb(0, 128, 128);" transform="matrix(1.6666667461395264, 0, 0, 1.6666667461395264, -670.6370687484741, -434.60595703125)"/><path class="cls-3" d="M451.52,316.08a10.25,10.25,0,0,1-4-4.94c-.29-1.21-1.44-2.92-3.29-2-2.43,1.22-7.88,7-5.22,14.41,2.33,6.52,13.44,8.49,17.64,1.72C459.86,320.13,454.49,318.14,451.52,316.08Zm-7-17.17a10.24,10.24,0,0,1,4,4.94c.29,1.21,1.44,2.92,3.29,2,2.43-1.21,7.88-7,5.22-14.41-2.33-6.52-13.44-8.49-17.64-1.72C436.14,294.87,441.51,296.87,444.48,298.92Zm21.3-.08c-5.15-3.19-7.14,2.17-9.2,5.15a10.24,10.24,0,0,1-4.94,4c-1.21.29-2.92,1.44-2,3.29,1.22,2.43,7,7.88,14.41,5.22C470.58,314.14,472.55,303,465.78,298.84ZM444.36,307c1.21-.29,2.92-1.44,2-3.29-1.22-2.43-7-7.88-14.41-5.21-6.52,2.33-8.49,13.44-1.72,17.64,5.15,3.19,7.14-2.17,9.2-5.15A10.24,10.24,0,0,1,444.36,307Zm5.45.46a1.81,1.81,0,1,1-1.81-1.81A1.81,1.81,0,0,1,449.81,307.5Z" style="fill: rgb(255, 255, 255);" transform="matrix(1.856726288795471, 0, 0, 1.856726288795471, -756.5185546874999, -494.7221984863281)"/><path d="M 80.49260711669922 88.86698913574219" style="fill: rgb(0, 128, 128); fill-opacity: 1; stroke: rgb(0, 0, 0); stroke-opacity: 1; stroke-width: 0; paint-order: fill;"/></svg>