<?xml version="1.0" encoding="utf-8"?>
<svg id="master-artboard" viewBox="0 0 106.81819915771484 107.72728729248047" xmlns="http://www.w3.org/2000/svg" width="106.81819915771484px" height="107.72728729248047px"><rect id="ee-background" x="0" y="0" width="106.81819915771484" height="107.72728729248047" style="fill: white; fill-opacity: 0; pointer-events: none;"/><title>free-hvac-vector-icons</title><path d="M 0 0 H 550 V 385 H 0 V 0 Z" id="color" class="cls-1" style="fill: rgb(230, 230, 230); fill-opacity: 0;" transform="matrix(1, 0, 0, 1, 0, 0)"/><path d="M 147 307.5 A 45 45 0 0 1 102 352.5 A 45 45 0 0 1 57 307.5 A 45 45 0 0 1 102 262.5 A 45 45 0 0 1 147 307.5 Z" class="cls-2" style="fill: rgb(0, 128, 128); stroke: rgb(0, 0, 0); stroke-width: 0;" transform="matrix(1.1599327935112846, 0, 0, 1.1599327935112846, -65.17677332560221, -303.3459752400716)"/><g transform="matrix(0.2596866190433502, 0, 0, 0.2596866190433502, 4.125890067129376, 8.079144079275807)"><g transform="translate(0.000000,365.000000) scale(0.100000,-0.100000)" fill="#000000" stroke="none">
<path d="M1940 2940 c-187 -20 -1041 -161 -1125 -185 -113 -33 -203 -81 -233&#10;-126 -22 -32 -23 -40 -16 -139 3 -58 13 -116 20 -130 21 -39 49 -690 33 -769&#10;-17 -89 -9 -204 17 -233 15 -16 23 -41 27 -84 15 -182 165 -284 465 -314 97&#10;-10 296 -1 360 16 16 5 22 2 22 -9 0 -28 58 -84 111 -107 30 -12 83 -24 125&#10;-27 l74 -6 0 -30 c0 -17 -8 -35 -17 -42 -15 -11 -15 -15 -4 -29 12 -14 52 -16&#10;338 -16 291 0 324 2 330 16 4 10 -1 22 -10 29 -13 10 -17 29 -17 87 l0 74 53&#10;-7 c212 -30 484 16 565 97 l32 32 0 590 0 590 -25 30 c-31 37 -103 68 -208 91&#10;l-80 17 2 84 c1 47 6 89 11 95 5 6 10 57 11 113 3 121 -5 137 -91 189 -115 70&#10;-269 102 -515 108 -93 2 -208 0 -255 -5z m500 -66 c213 -36 350 -123 294 -185&#10;-45 -49 -134 -79 -397 -129 -142 -28 -264 -50 -272 -50 -9 0 -29 16 -46 35&#10;-19 21 -51 42 -81 52 -38 14 -58 29 -85 66 -58 79 -75 80 -128 10 -25 -32 -55&#10;-56 -107 -82 -62 -31 -76 -43 -96 -81 -15 -29 -21 -55 -18 -73 8 -38 -16 -45&#10;-186 -59 -228 -19 -458 11 -587 77 -49 24 -121 95 -121 119 0 44 113 106 259&#10;142 109 27 957 161 1101 174 127 12 354 4 470 -16z m-616 -263 c31 -42 36 -56&#10;36 -104 0 -37 4 -57 14 -60 22 -9 36 14 36 60 0 24 3 43 8 43 4 0 21 -9 39&#10;-20 92 -56 55 -136 -81 -175 -137 -40 -316 20 -316 106 0 18 11 37 35 58 50&#10;44 65 41 65 -12 0 -46 14 -69 36 -60 10 3 14 23 14 63 0 50 4 63 35 104 20 25&#10;38 46 40 46 2 0 19 -22 39 -49z m906 -63 c-50 -40 -157 -68 -543 -141 l-128&#10;-24 3 36 3 36 245 46 c249 48 356 77 407 110 l28 19 3 -32 c3 -24 -2 -37 -18&#10;-50z m0 -82 c0 -7 -3 -33 -6 -58 l-6 -45 -127 -6 c-192 -9 -336 -53 -378 -116&#10;-15 -23 -17 -59 -14 -347 1 -177 -1 -324 -6 -327 -5 -3 -37 -9 -71 -13 l-62&#10;-7 0 391 0 390 23 5 c12 3 108 22 212 41 237 45 319 64 370 87 49 22 65 23 65&#10;5z m-1995 -70 c164 -76 441 -95 755 -53 19 3 27 -53 9 -64 -61 -37 -516 -38&#10;-653 0 -144 40 -226 95 -226 152 l0 31 33 -22 c17 -12 55 -32 82 -44z m1275&#10;-449 l0 -414 -48 -31 c-51 -33 -89 -80 -119 -147 -14 -33 -18 -78 -21 -259&#10;l-4 -219 -62 5 c-70 6 -160 41 -181 72 -13 17 -15 122 -15 708 0 379 2 688 5&#10;688 3 0 16 -7 28 -15 44 -28 148 -48 226 -42 65 5 117 23 189 66 1 0 2 -185 2&#10;-412z m857 338 c81 -19 151 -52 165 -78 27 -51 -101 -108 -284 -127 -231 -24&#10;-507 39 -496 113 4 25 55 62 107 78 133 40 373 47 508 14z m-2152 -14 c166&#10;-76 460 -97 753 -55 l42 7 0 -406 c0 -223 -4 -408 -8 -411 -22 -13 -193 -29&#10;-317 -29 -259 0 -416 64 -478 196 -24 49 -26 67 -36 322 -6 149 -14 301 -17&#10;339 -4 38 -2 67 2 64 5 -2 32 -14 59 -27z m1635 -207 c171 -59 477 -52 635 16&#10;50 21 59 12 19 -19 -62 -49 -285 -88 -429 -76 -135 12 -246 40 -297 77 -31 22&#10;-38 45 -10 32 9 -4 46 -17 82 -30z m0 -90 c174 -60 476 -52 638 17 24 11 46&#10;19 48 19 2 0 4 -195 4 -434 l0 -434 -30 -26 c-82 -68 -326 -100 -532 -70 l-38&#10;6 0 108 c0 60 -5 132 -11 160 -14 68 -64 138 -127 180 l-52 34 0 239 c0 224 1&#10;239 18 231 9 -4 46 -17 82 -30z m-1520 -586 c149 -69 374 -84 639 -42 l41 7 0&#10;-71 0 -71 -37 -8 c-21 -4 -117 -8 -213 -8 -147 1 -189 4 -265 23 -118 30 -225&#10;83 -286 141 -48 47 -49 48 -49 108 l0 61 58 -57 c31 -31 82 -68 112 -83z&#10;m1384 100 c25 -8 61 -32 93 -63 78 -76 84 -106 81 -411 l-3 -249 -252 -3 -253&#10;-2 0 274 c0 301 2 313 62 382 64 73 173 101 272 72z m-1452 -234 c65 -41 182&#10;-80 298 -99 84 -15 138 -17 277 -12 l173 6 0 -55 c0 -50 -2 -55 -27 -66 -16&#10;-6 -105 -13 -199 -16 -134 -3 -188 -1 -252 12 -192 39 -287 108 -317 229 -9&#10;33 -5 34 47 1z m2248 -225 c-65 -50 -264 -85 -431 -76 -116 7 -139 12 -139 33&#10;0 11 7 12 28 7 15 -4 95 -7 177 -7 157 1 251 16 335 52 52 23 65 19 30 -9z" style="fill: rgb(255, 255, 255); stroke: rgb(0, 0, 0); stroke-width: 0;"/>
<path d="M2520 2239 c-46 -14 -60 -27 -60 -55 0 -35 49 -56 144 -61 175 -11&#10;279 45 191 103 -32 21 -219 30 -275 13z m215 -48 c16 -7 14 -9 -14 -14 -19 -4&#10;-55 -7 -81 -7 -26 0 -62 3 -81 7 -52 10 -9 22 81 22 41 0 84 -4 95 -8z" style="fill: rgb(255, 255, 255); stroke: rgb(0, 0, 0); stroke-width: 0;"/>
</g></g></svg>