<?xml version="1.0" encoding="utf-8"?>
<svg id="master-artboard" viewBox="0 0 152.9145965576172 154.156005859375" xmlns="http://www.w3.org/2000/svg" width="152.9145965576172px" height="154.156005859375px"><rect id="ee-background" x="0" y="0" width="152.9145965576172" height="154.156005859375" style="fill: rgb(126, 121, 128); fill-opacity: 0; pointer-events: none;"/><defs><radialGradient id="gradient-0" gradientUnits="objectBoundingBox" cx="0.5" cy="0.5" r="0.5">
                <stop offset="0" style="stop-color: #7e7980"/>
                <stop offset="1" style="stop-color: #4a474b"/>
              </radialGradient></defs><title>free-hvac-vector-icons</title><path d="M 493 307.5 A 45 45 0 0 1 448 352.5 A 45 45 0 0 1 403 307.5 A 45 45 0 0 1 448 262.5 A 45 45 0 0 1 493 307.5 Z" class="cls-2" style="fill: rgb(0, 128, 128);" transform="matrix(1.6666667461395264, 0, 0, 1.6666667461395264, -670.6370687484741, -434.60595703125)"/><path d="M 80.49260711669922 88.86698913574219" style="fill: rgb(0, 128, 128); fill-opacity: 1; stroke: rgb(0, 0, 0); stroke-opacity: 1; stroke-width: 0; paint-order: fill;"/><path class="cls-3" d="M211,330.73s-28.65,1.55-10.45-29.42c0,0,.39,7.74,4.26,8.13s12.39-10.84,8.9-25.93c0,0,11.61,8.52,13.55,15.1s2.86-1,2.86-1,21.91,19.19,1,33.9c0,0,3.64-10,1.16-15.49-2.28-5-1.55-.28-3.1,3.59s-5-8.62-8.51-10.94-.77,18.19-10.06,14.32S211,330.73,211,330.73Z" style="fill: rgb(255, 255, 255);" transform="matrix(1.8141765594482422, 0, 0, 1.8141765594482422, -317.0172359523452, -483.66562953066426)"/></svg>