<svg xmlns="http://www.w3.org/2000/svg" width="36.994" height="36.994" viewBox="0 0 36.994 36.994">
  <g id="Group_3" data-name="Group 3" transform="translate(-906.081 -2166.007)">
    <g id="g10" transform="translate(906.081 2166.007)">
      <g id="g14" transform="translate(0 0)">
        <g id="Group_2" data-name="Group 2">
          <g id="g62">
            <path id="path64" d="M-144,0a18.5,18.5,0,0,0-18.5,18.5,18.507,18.507,0,0,0,11.756,17.23,17.777,17.777,0,0,1,.064-5.312c.336-1.444,2.169-9.194,2.169-9.194a6.679,6.679,0,0,1-.553-2.746c0-2.572,1.491-4.492,3.347-4.492a2.324,2.324,0,0,1,2.34,2.605c0,1.587-1.01,3.96-1.532,6.159a2.686,2.686,0,0,0,2.739,3.342c3.287,0,5.815-3.466,5.815-8.47,0-4.429-3.182-7.525-7.726-7.525a8.006,8.006,0,0,0-8.352,8.027,7.2,7.2,0,0,0,1.377,4.221.553.553,0,0,1,.128.531c-.14.584-.452,1.841-.514,2.1-.081.339-.268.41-.619.247-2.31-1.075-3.754-4.453-3.754-7.166,0-5.835,4.239-11.193,12.222-11.193,6.417,0,11.4,4.572,11.4,10.683,0,6.375-4.019,11.5-9.6,11.5a4.951,4.951,0,0,1-4.24-2.124s-.927,3.532-1.152,4.4a20.674,20.674,0,0,1-2.3,4.849,18.487,18.487,0,0,0,5.477.825,18.5,18.5,0,0,0,18.5-18.5A18.5,18.5,0,0,0-144,0" transform="translate(162.493)" fill="rgba(255,255,255,0.82)"/>
          </g>
        </g>
      </g>
    </g>
  </g>
</svg>
