<svg id="Instagram" xmlns="http://www.w3.org/2000/svg" width="33.025" height="33.025" viewBox="0 0 33.025 33.025">
  <path id="Path_3" data-name="Path 3" d="M16.512,2.936a50.631,50.631,0,0,1,6.6.183,8.51,8.51,0,0,1,3.119.55,6.443,6.443,0,0,1,3.119,3.119,8.51,8.51,0,0,1,.55,3.119c0,1.651.183,2.2.183,6.6a50.631,50.631,0,0,1-.183,6.6,8.51,8.51,0,0,1-.55,3.119,6.443,6.443,0,0,1-3.119,3.119,8.51,8.51,0,0,1-3.119.55c-1.651,0-2.2.183-6.6.183a50.631,50.631,0,0,1-6.6-.183,8.51,8.51,0,0,1-3.119-.55,6.443,6.443,0,0,1-3.119-3.119,8.51,8.51,0,0,1-.55-3.119c0-1.651-.183-2.2-.183-6.6a50.631,50.631,0,0,1,.183-6.6,8.51,8.51,0,0,1,.55-3.119A6.589,6.589,0,0,1,4.954,4.954,3.1,3.1,0,0,1,6.788,3.669a8.51,8.51,0,0,1,3.119-.55,50.631,50.631,0,0,1,6.6-.183m0-2.936A54.211,54.211,0,0,0,9.724.183,11.327,11.327,0,0,0,5.688.917,7.182,7.182,0,0,0,2.752,2.752,7.182,7.182,0,0,0,.917,5.688,8.36,8.36,0,0,0,.183,9.724,54.211,54.211,0,0,0,0,16.512,54.211,54.211,0,0,0,.183,23.3a11.327,11.327,0,0,0,.734,4.036,7.182,7.182,0,0,0,1.835,2.936,7.182,7.182,0,0,0,2.936,1.835,11.327,11.327,0,0,0,4.036.734,54.211,54.211,0,0,0,6.788.183,54.211,54.211,0,0,0,6.788-.183,11.327,11.327,0,0,0,4.036-.734,7.7,7.7,0,0,0,4.77-4.77,11.327,11.327,0,0,0,.734-4.036c0-1.835.183-2.385.183-6.788a54.211,54.211,0,0,0-.183-6.788,11.327,11.327,0,0,0-.734-4.036,7.182,7.182,0,0,0-1.835-2.936A7.182,7.182,0,0,0,27.337.917,11.327,11.327,0,0,0,23.3.183,54.211,54.211,0,0,0,16.512,0m0,8.073a8.3,8.3,0,0,0-8.44,8.44,8.44,8.44,0,1,0,8.44-8.44m0,13.944a5.406,5.406,0,0,1-5.5-5.5,5.406,5.406,0,0,1,5.5-5.5,5.406,5.406,0,0,1,5.5,5.5,5.406,5.406,0,0,1-5.5,5.5M25.319,5.688a2.018,2.018,0,1,0,2.018,2.018,2.036,2.036,0,0,0-2.018-2.018" fill="rgba(255,255,255,0.82)" fill-rule="evenodd"/>
</svg>
