<svg xmlns="http://www.w3.org/2000/svg" width="46.612" height="82.418" viewBox="0 0 46.612 82.418">
  <path id="money" d="M31.412,39.172c-10.394-2.7-13.736-5.495-13.736-9.844,0-4.991,4.625-8.471,12.363-8.471,8.15,0,11.172,3.892,11.447,9.615H51.6c-.321-7.875-5.128-15.11-14.7-17.445V3H23.17v9.89C14.287,14.813,7.144,20.582,7.144,29.42c0,10.577,8.745,15.843,21.52,18.91C40.111,51.077,42.4,55.106,42.4,59.365c0,3.159-2.244,8.2-12.363,8.2-9.432,0-13.141-4.212-13.645-9.615H6.32C6.869,67.973,14.379,73.6,23.17,75.482v9.936H36.906V75.574c8.929-1.694,16.026-6.868,16.026-16.255C52.932,46.315,41.806,41.874,31.412,39.172Z" transform="translate(-6.32 -3)" fill="#070A40"/>
</svg>
