<?xml version="1.0" encoding="utf-8"?>
<svg id="master-artboard" viewBox="0 0 152.9145965576172 154.156005859375" xmlns="http://www.w3.org/2000/svg" width="152.9145965576172px" height="154.156005859375px"><rect id="ee-background" x="0" y="0" width="152.9145965576172" height="154.156005859375" style="fill: rgb(126, 121, 128); fill-opacity: 0; pointer-events: none;"/><defs><radialGradient id="gradient-0" gradientUnits="objectBoundingBox" cx="0.5" cy="0.5" r="0.5">
                <stop offset="0" style="stop-color: #7e7980"/>
                <stop offset="1" style="stop-color: #4a474b"/>
              </radialGradient></defs><title>free-hvac-vector-icons</title><path d="M 493 307.5 A 45 45 0 0 1 448 352.5 A 45 45 0 0 1 403 307.5 A 45 45 0 0 1 448 262.5 A 45 45 0 0 1 493 307.5 Z" class="cls-2" style="fill: rgb(0, 128, 128);" transform="matrix(1.6666667461395264, 0, 0, 1.6666667461395264, -670.6370687484741, -434.60595703125)"/><path d="M 80.49260711669922 88.86698913574219" style="fill: rgb(0, 128, 128); fill-opacity: 1; stroke: rgb(0, 0, 0); stroke-opacity: 1; stroke-width: 0; paint-order: fill;"/><path class="cls-9" d="M592.3,435c11-13.68,16.75-29.09,16.45-45.12a74.45,74.45,0,0,0-15.34-44.15c11.61-14,17.79-29.85,17.58-46.37-.22-18.35-7.19-35.38-19.77-49.59,8.62-10.37,13.22-22.05,13.22-34.38,0-42.27-55.17-75.37-125.67-75.37a12.16,12.16,0,1,0,0,24.31c28.42,0,54.79,6,74.43,17,17,9.54,26.93,21.88,26.93,34,0,6.22-2.58,12.43-7.33,18.29a119.55,119.55,0,0,0-14.74-8.57l-.06.13c-17.51-10.11-45.78-14.9-72.69-14.9-43.39,0-89.95,12.34-89.95,39.27s46.75,39.28,89.95,39.28c24.65,0,50.31-4,67.89-12.37A124.38,124.38,0,0,0,573,265.86c8.7,9.91,13.49,21.51,13.71,33.86.09,9.85-3.57,19.57-10.5,28.57l-.23-.18c-4.15-4.14-9.78-7.66-16.45-10.61-1.21-.64-2.43-1.27-3.68-1.89l-.15.31c-17.18-6.66-40-9.85-61.94-9.85-43.39,0-90,12.35-90,39.28s46.76,39.27,90,39.27c22.54,0,45.92-3.34,63.2-10.31v0l.24-.13c7.54-3.07,13.92-6.84,18.52-11.33a50.73,50.73,0,0,1,8.73,27.35c.1,9.68-3.45,19.22-10.14,28.09-1-.76-2.13-1.5-3.22-2.23-16.25-13.26-48.71-19.5-79.4-19.5-43.39,0-90,12.35-90,39.28s46.76,39.27,90,39.27c33.42,0,68.7-7.33,83.16-23a51.42,51.42,0,0,1,11.1,30.67c.09,9.57-3.38,19-9.93,27.84-2.28-1.65-4.7-3.24-7.23-4.78a64,64,0,0,0-8.47-4.67c-3.32-1.67-6.81-3.26-10.47-4.74a12.72,12.72,0,0,0-4.94-.83c-15.5-4.36-33.91-6.46-51.72-6.46-43.39,0-90,12.34-90,39.27s46.76,39.28,90,39.28c33.08,0,68-7.19,82.71-22.53A26.86,26.86,0,0,1,580,558.93c0,12.15-9.73,24.49-26.94,34-19.82,11-46.19,17-74.43,17a12.16,12.16,0,1,0,0,24.31c70.51,0,125.68-33.1,125.68-75.36,0-11.12-3.69-21.64-10.64-31.15,11.08-13.73,16.93-29.23,16.62-45.35C610,465,603.72,448.75,592.3,435ZM420.23,249.59c3.93-4.86,26.37-14.77,65.27-15,32.7,0,53.64,7.14,61.92,12.3l0,0,.44.22a13.77,13.77,0,0,1,2.93,2.39,15.33,15.33,0,0,1-3.63,2.84c-2,1-4.1,1.89-6.28,2.77a12.46,12.46,0,0,0-2.24,1.24c-10.94,4.16-28.77,8.12-53.12,8.12C446.6,264.56,424.34,254.46,420.23,249.59Zm8.42,95.76c3.92-4.86,26.37-15,65.27-15,24.56,0,42.48,4,53.4,8.22a90.06,90.06,0,0,1,10.8,6.5,118.43,118.43,0,0,1-12.18,7.49c-11,4-28.46,7.71-52,7.71C455,360.31,432.76,350.21,428.65,345.35Zm-2.06,90.52c3.93-4.87,26.37-15,65.27-15,25.77,0,44.23,4.44,54.95,8.84l-.15.33a92.51,92.51,0,0,1,9.54,5.34,119,119,0,0,1-12.85,7.91c-11.05,3.92-28.31,7.51-51.49,7.51C453,450.83,430.7,440.73,426.59,435.87Zm1.49,92.57c3.93-4.86,26.37-15,65.27-15,24.15,0,41.87,3.89,52.83,8a96.87,96.87,0,0,1,11.77,6.4,114.37,114.37,0,0,1-13.11,8c-11,3.93-28.31,7.51-51.49,7.51C454.45,543.4,432.2,533.3,428.08,528.44Z" style="fill: rgb(241, 242, 242);" transform="matrix(0.2103370726108551, 0, 0, 0.2103370726108551, -30.229348613965357, -4.857634453272581)"/></svg>