<svg id="Twitter" xmlns="http://www.w3.org/2000/svg" width="33.025" height="33" viewBox="0 0 33.025 33">
  <rect id="Rectangle_393" data-name="Rectangle 393" width="33" height="33" fill="none"/>
  <path id="Path_2" data-name="Path 2" d="M48.458,28.787c12.476,0,19.265-10.274,19.265-19.265V8.6a14.914,14.914,0,0,0,3.3-3.486,15.231,15.231,0,0,1-3.853,1.1A7.138,7.138,0,0,0,70.108,2.55,16.829,16.829,0,0,1,65.888,4.2,6.552,6.552,0,0,0,60.934,2a6.893,6.893,0,0,0-6.788,6.788,3.577,3.577,0,0,0,.183,1.468A18.969,18.969,0,0,1,40.385,3.1a7.026,7.026,0,0,0-.917,3.486A7.29,7.29,0,0,0,42.4,12.274a6.185,6.185,0,0,1-3.119-.917h0a6.705,6.705,0,0,0,5.5,6.6,5.656,5.656,0,0,1-1.835.183,3.122,3.122,0,0,1-1.284-.183,6.951,6.951,0,0,0,6.422,4.77,13.852,13.852,0,0,1-8.44,2.936A5.08,5.08,0,0,1,38,25.484a17.318,17.318,0,0,0,10.458,3.3" transform="translate(-38 2.127)" fill="rgba(255,255,255,0.82)" fill-rule="evenodd"/>
</svg>
