<?xml version="1.0" standalone="no"?>
<!DOCTYPE svg PUBLIC "-//W3C//DTD SVG 20010904//EN"
 "http://www.w3.org/TR/2001/REC-SVG-20010904/DTD/svg10.dtd">
<svg version="1.0" xmlns="http://www.w3.org/2000/svg"
 width="300.000000pt" height="111.000000pt" viewBox="0 0 300.000000 111.000000"
 preserveAspectRatio="xMidYMid meet">
<metadata>
Created by potrace 1.10, written by Peter Selinger 2001-2011
</metadata>
<g transform="translate(0.000000,111.000000) scale(0.100000,-0.100000)"
fill="#ffffff" stroke="none">
<path d="M440 978 c0 -10 5 -18 11 -18 5 0 8 4 5 9 -3 5 21 9 54 8 32 0 57 -4
54 -9 -3 -4 -3 -8 0 -8 3 0 10 8 15 18 9 17 5 19 -64 18 -64 -1 -75 -3 -75
-18z"/>
<path d="M743 993 c9 -15 -19 -24 -51 -18 l-27 5 24 -10 c14 -6 30 -9 37 -6 7
3 14 0 17 -7 2 -6 6 -1 9 11 4 12 1 25 -4 29 -6 3 -8 1 -5 -4z"/>
<path d="M806 992 c-7 -12 27 -27 72 -31 7 0 11 -5 8 -10 -5 -8 22 -25 32 -21
2 1 10 -6 17 -16 7 -10 20 -19 29 -20 14 -2 15 0 5 12 -6 8 -14 12 -17 9 -3
-3 -12 4 -19 15 -8 11 -19 18 -24 15 -5 -4 -9 -2 -9 4 0 14 -55 42 -64 33 -4
-3 -11 0 -15 7 -6 8 -11 9 -15 3z"/>
<path d="M360 939 c0 -6 -7 -9 -14 -6 -11 4 -13 1 -9 -11 6 -15 4 -15 -9 -4
-14 11 -22 11 -48 -3 -17 -9 -28 -20 -25 -25 4 -6 8 -10 11 -10 3 0 2 5 -1 10
-3 6 -2 10 3 10 11 0 37 -29 28 -31 -3 -1 -10 -2 -16 -3 -5 0 -14 -6 -21 -13
-9 -9 -18 -9 -33 -2 -19 9 -19 9 -4 -4 10 -8 14 -18 10 -22 -4 -5 -1 -4 7 0
10 6 13 4 9 -7 -8 -19 27 -74 36 -59 4 6 3 11 -2 11 -5 0 -9 6 -9 13 0 6 -4
19 -7 28 -5 12 3 25 28 44 29 22 34 30 25 41 -8 10 -8 14 -1 14 6 0 14 -4 17
-10 6 -9 65 14 65 26 0 2 -9 0 -19 -6 -30 -16 -36 -12 -16 10 10 11 13 20 7
20 -7 0 -12 -5 -12 -11z m-53 -26 c-4 -3 -2 -12 4 -20 7 -8 8 -13 1 -13 -5 0
-15 6 -21 14 -9 11 -9 15 1 19 19 8 22 8 15 0z"/>
<path d="M444 937 c-2 -7 -3 -91 -1 -187 l3 -175 2 182 c1 134 5 183 15 186 9
4 9 6 -1 6 -7 1 -15 -5 -18 -12z"/>
<path d="M704 935 c1 -8 6 -18 11 -22 4 -4 5 -2 1 5 -4 6 -2 12 4 12 6 0 8 5
5 10 -9 15 -24 12 -21 -5z"/>
<path d="M822 921 c-11 -7 -11 -9 2 -14 9 -4 23 -3 33 0 11 4 14 3 9 -5 -5 -8
-1 -10 10 -5 11 4 15 2 11 -4 -8 -12 63 -52 82 -45 8 2 11 0 8 -6 -4 -5 0 -15
9 -22 8 -7 13 -19 10 -26 -3 -7 -2 -16 3 -18 12 -8 10 27 -3 43 -9 12 -7 13
11 9 20 -5 21 -3 13 12 -13 24 -30 35 -30 20 0 -7 -16 -2 -37 11 -20 13 -33
17 -28 10 5 -9 3 -12 -4 -10 -7 3 -12 9 -12 14 0 6 -14 18 -32 27 -38 20 -38
20 -55 9z"/>
<path d="M692 905 c4 -4 0 -13 -9 -20 -13 -10 -14 -13 -2 -20 8 -5 11 -5 7 0
-4 4 0 13 9 20 13 10 14 13 2 20 -8 5 -11 5 -7 0z"/>
<path d="M664 852 c4 -7 3 -12 -3 -12 -13 0 -42 -55 -34 -64 4 -3 1 -6 -5 -6
-16 0 -44 -57 -32 -65 6 -3 10 -1 10 4 0 6 0 13 0 16 0 3 9 14 20 25 12 12 18
25 15 30 -4 6 -2 10 4 10 17 0 43 58 29 66 -7 4 -8 3 -4 -4z"/>
<path d="M1069 833 c-1 -5 -1 -12 0 -17 1 -5 -5 -6 -13 -3 -9 4 -18 2 -20 -2
-3 -5 3 -8 14 -7 11 0 20 5 19 10 0 5 5 13 13 17 10 7 10 9 1 9 -7 0 -14 -3
-14 -7z"/>
<path d="M203 808 c-8 -13 -9 -18 -12 -38 0 -5 -7 -7 -14 -4 -19 7 -42 -22
-26 -32 7 -4 9 -3 6 3 -4 6 0 13 8 17 8 3 17 1 20 -5 10 -15 25 0 18 18 -4 10
-2 14 5 9 6 -3 13 -2 16 3 4 5 2 12 -4 16 -6 4 -8 11 -5 16 4 5 4 9 1 9 -3 0
-8 -6 -13 -12z"/>
<path d="M1117 793 c-5 -5 19 -63 26 -63 2 0 3 9 3 19 0 11 -5 17 -10 14 -5
-4 -7 1 -3 10 6 17 -5 31 -16 20z"/>
<path d="M1062 752 c22 -20 46 -37 51 -37 6 0 12 -6 15 -14 3 -9 0 -11 -9 -6
-8 5 -6 -1 5 -13 10 -12 23 -19 28 -16 19 12 -77 115 -112 121 -15 2 -9 -7 22
-35z m24 -4 l29 -33 -32 29 c-31 28 -38 36 -30 36 2 0 16 -15 33 -32z"/>
<path d="M975 770 c6 -10 4 -12 -7 -7 -22 8 -56 -17 -38 -28 9 -6 11 -4 5 5
-6 10 -4 12 7 7 22 -8 56 17 38 28 -9 6 -11 4 -5 -5z"/>
<path d="M285 741 c-3 -6 1 -14 9 -17 9 -3 13 -10 11 -15 -3 -4 2 -17 12 -27
10 -10 19 -25 21 -33 2 -8 10 -20 19 -26 9 -7 14 -13 10 -13 -4 0 -3 -9 3 -20
6 -11 16 -20 23 -20 8 0 8 3 -1 9 -8 4 -13 11 -13 15 2 17 -1 24 -19 44 -12
12 -18 22 -15 22 6 0 -30 65 -45 83 -4 5 -11 4 -15 -2z"/>
<path d="M2317 743 c-3 -5 18 -7 47 -5 45 3 57 0 84 -23 18 -15 30 -21 27 -13
-10 25 -62 48 -108 48 -25 0 -48 -3 -50 -7z"/>
<path d="M881 721 c-11 -11 -23 -16 -27 -13 -4 4 -3 1 1 -7 6 -11 4 -13 -7 -8
-22 8 -56 -17 -38 -28 9 -6 11 -4 5 5 -6 10 -4 12 7 8 18 -7 71 25 61 37 -5 4
0 5 9 2 19 -7 34 8 19 18 -6 3 -19 -3 -30 -14z"/>
<path d="M1156 725 c-4 -11 -2 -14 6 -9 8 5 9 2 5 -9 -4 -11 1 -20 14 -28 20
-10 20 -10 3 23 -21 42 -20 42 -28 23z"/>
<path d="M1520 570 l0 -170 35 0 35 0 0 103 c0 69 3 97 10 87 15 -24 11 2 -5
30 -13 23 -14 14 -15 -92 l0 -118 -25 0 -25 0 0 159 0 160 38 4 37 4 -42 1
-43 2 0 -170z"/>
<path d="M1800 719 c-7 -11 -9 -23 -7 -26 3 -2 8 5 12 16 4 15 15 21 36 21
l29 0 0 -160 c0 -153 -1 -160 -20 -160 -19 0 -20 7 -20 115 0 77 -4 115 -11
115 -6 0 -8 -7 -5 -16 3 -9 6 -63 6 -120 l0 -104 30 0 30 0 0 170 0 170 -35 0
c-25 0 -37 -6 -45 -21z"/>
<path d="M2029 714 c-5 -15 -7 -29 -5 -32 3 -2 8 7 12 22 5 21 12 26 39 26 27
0 34 -5 39 -26 4 -15 9 -24 12 -22 2 3 0 17 -5 32 -9 21 -17 26 -46 26 -29 0
-37 -5 -46 -26z"/>
<path d="M2635 728 c-25 -69 -33 -98 -26 -94 5 3 14 26 21 51 12 42 15 45 45
45 19 0 36 -5 38 -10 3 -6 4 -5 3 2 -4 18 -75 23 -81 6z"/>
<path d="M2277 712 c-27 -29 -22 -98 8 -127 13 -14 29 -25 35 -25 6 0 -2 12
-19 26 -25 21 -31 33 -31 67 0 24 7 48 17 59 9 10 14 18 11 18 -3 0 -12 -8
-21 -18z"/>
<path d="M106 685 c-7 -20 2 -38 16 -29 5 3 8 -2 7 -12 -2 -11 0 -25 4 -31 6
-9 3 -11 -7 -7 -9 3 -16 2 -16 -4 0 -5 7 -13 16 -16 13 -5 15 -17 12 -61 -2
-30 -1 -55 4 -55 4 0 8 34 8 75 0 41 -4 75 -9 75 -5 0 -7 9 -4 20 3 11 10 17
17 13 6 -3 7 -2 3 3 -5 5 -14 9 -20 9 -7 0 -12 5 -12 12 0 20 -12 25 -19 8z"/>
<path d="M572 696 c3 -4 -2 -16 -13 -27 -11 -11 -17 -24 -14 -29 4 -6 2 -10
-3 -10 -5 0 -9 -7 -9 -15 0 -22 5 -19 22 15 9 17 12 30 8 30 -4 0 1 6 12 13
15 12 16 15 4 22 -8 5 -11 5 -7 1z"/>
<path d="M2332 688 c-18 -18 -15 -53 6 -69 15 -13 16 -12 4 3 -8 9 -12 27 -10
40 4 32 61 38 80 9 17 -27 78 -30 77 -3 0 10 -3 12 -6 5 -8 -20 -52 -15 -65 7
-14 23 -67 27 -86 8z"/>
<path d="M2720 697 c0 -13 42 -118 46 -115 2 2 -6 29 -17 59 -20 52 -29 70
-29 56z"/>
<path d="M785 660 c6 -10 4 -12 -7 -7 -22 8 -56 -17 -38 -28 9 -6 11 -4 5 5
-6 10 -4 12 7 7 22 -8 56 17 38 28 -9 6 -11 4 -5 -5z"/>
<path d="M2666 654 c-4 -9 -4 -19 -1 -22 3 -3 5 1 6 9 0 8 9 -4 20 -26 18 -37
17 -18 -2 33 -10 26 -15 28 -23 6z"/>
<path d="M1155 652 c-5 -5 33 -82 41 -82 2 0 0 9 -6 19 -14 27 -13 36 3 22 14
-11 27 -5 27 13 0 6 -5 4 -10 -4 -7 -12 -10 -12 -10 -1 0 7 -6 11 -15 7 -8 -3
-15 -1 -15 4 0 6 5 10 10 10 6 0 10 4 10 8 0 9 -27 12 -35 4z"/>
<path d="M1761 629 c-6 -18 -9 -34 -7 -36 2 -2 9 10 15 28 6 18 9 34 7 36 -2
2 -9 -10 -15 -28z"/>
<path d="M1631 648 c-1 -12 31 -89 35 -85 3 2 -4 24 -15 48 -11 24 -20 41 -20
37z"/>
<path d="M1986 604 c-9 -26 -14 -49 -12 -51 2 -2 11 17 20 43 9 26 14 49 12
51 -2 2 -11 -17 -20 -43z"/>
<path d="M2046 604 c-9 -26 -14 -49 -12 -51 2 -2 11 17 20 43 9 26 14 49 12
51 -2 2 -11 -17 -20 -43z"/>
<path d="M2080 647 c0 -2 9 -30 20 -62 11 -32 20 -59 20 -61 0 -2 -24 -5 -52
-7 l-53 -3 58 -2 c31 -1 57 2 57 6 0 13 -41 132 -46 132 -2 0 -4 -2 -4 -3z"/>
<path d="M160 629 c0 -5 5 -7 10 -4 6 3 10 1 10 -5 0 -6 5 -8 11 -4 8 4 7 9
-2 15 -19 12 -29 11 -29 -2z"/>
<path d="M207 614 c-9 -9 43 -45 55 -38 4 3 8 0 8 -6 0 -6 4 -9 9 -6 5 4 12 0
14 -6 4 -10 6 -10 6 -1 1 14 -33 35 -43 26 -3 -3 -6 0 -6 7 0 7 -3 10 -7 7 -3
-4 -11 0 -17 9 -6 8 -15 12 -19 8z"/>
<path d="M681 603 c-6 -10 -11 -15 -11 -10 0 4 -14 0 -30 -8 -17 -9 -28 -20
-25 -25 4 -6 8 -10 11 -10 3 0 2 5 -2 12 -5 8 -2 9 10 5 10 -4 19 -1 22 8 4 8
9 13 14 10 4 -2 15 2 25 9 12 8 14 15 7 20 -6 3 -15 -2 -21 -11z"/>
<path d="M2385 595 c17 -8 35 -14 40 -15 28 -2 59 -40 65 -81 7 -44 8 -44 9
-8 1 48 -27 83 -86 103 -56 19 -69 20 -28 1z"/>
<path d="M2161 580 c0 -8 6 -26 15 -40 l15 -25 -7 25 c-3 14 -10 32 -15 40 -7
13 -8 13 -8 0z"/>
<path d="M2561 529 c-11 -34 -19 -64 -17 -66 2 -2 13 24 25 58 11 34 19 64 17
66 -2 2 -13 -24 -25 -58z"/>
<path d="M2631 559 c-16 -48 -15 -49 44 -49 46 0 55 3 55 18 0 9 -5 24 -10 32
-8 11 -9 8 -4 -12 6 -27 5 -28 -41 -28 -49 0 -49 0 -28 58 3 6 3 12 0 12 -3 0
-10 -14 -16 -31z"/>
<path d="M2776 550 c4 -14 13 -38 20 -55 11 -24 13 -25 8 -5 -4 14 -13 39 -20
55 -11 24 -13 25 -8 5z"/>
<path d="M311 553 c-1 -7 13 -20 30 -29 24 -12 30 -12 26 -2 -2 7 -10 12 -16
11 -6 -2 -11 2 -11 8 0 5 -4 8 -9 5 -5 -4 -12 0 -14 6 -4 10 -6 10 -6 1z"/>
<path d="M458 538 c9 -9 15 -9 24 0 9 9 7 12 -12 12 -19 0 -21 -3 -12 -12z"/>
<path d="M1771 528 c-16 -43 -22 -68 -18 -68 3 0 12 20 20 45 16 45 14 65 -2
23z"/>
<path d="M2371 547 c2 -2 18 -11 34 -21 l30 -17 -24 20 c-13 12 -28 21 -34 21
-6 0 -8 -1 -6 -3z"/>
<path d="M90 514 c0 -16 5 -36 10 -44 6 -10 7 -2 3 25 -7 49 -13 58 -13 19z"/>
<path d="M415 520 c-21 -23 -9 -26 18 -6 10 8 14 17 9 20 -5 3 -17 -3 -27 -14z"/>
<path d="M527 523 c-3 -4 3 -18 13 -31 11 -13 21 -18 25 -12 3 5 1 10 -5 10
-6 0 -9 4 -6 9 3 5 -1 14 -8 20 -8 7 -16 8 -19 4z"/>
<path d="M1680 528 c0 -4 5 -19 11 -35 9 -25 11 -26 21 -10 5 10 7 21 4 24 -3
4 -6 0 -6 -8 -1 -8 -7 -3 -15 11 -8 14 -14 22 -15 18z"/>
<path d="M1636 500 c3 -14 11 -32 16 -40 6 -10 7 -7 2 10 -3 14 -11 32 -16 40
-6 10 -7 7 -2 -10z"/>
<path d="M2261 482 c-1 -28 49 -82 76 -82 11 0 5 7 -17 18 -24 11 -39 28 -47
52 -9 28 -12 30 -12 12z"/>
<path d="M1928 445 l-17 -45 34 0 c34 0 56 21 54 52 0 7 -5 1 -11 -14 -7 -20
-17 -28 -34 -28 -26 0 -30 11 -13 41 6 11 9 25 7 30 -2 6 -11 -10 -20 -36z"/>
<path d="M750 473 c264 -7 490 -7 490 0 0 4 -134 6 -297 5 -164 -1 -251 -4
-193 -5z"/>
<path d="M1250 472 c0 -5 11 -7 24 -5 21 4 25 1 29 -23 l4 -29 -1 30 c-1 25
-6 31 -28 33 -16 2 -28 -1 -28 -6z"/>
<path d="M2070 471 c74 -6 74 -6 84 -38 8 -29 13 -33 42 -33 38 0 41 9 18 55
-14 29 -14 23 0 -22 6 -20 4 -23 -18 -23 -19 0 -27 7 -36 35 l-12 35 -76 -2
-77 -2 75 -5z"/>
<path d="M2600 473 c0 -5 30 -6 67 -5 56 3 69 1 81 -15 14 -17 14 -17 8 0 -3
10 -6 21 -6 23 0 2 -34 4 -75 4 -41 0 -75 -3 -75 -7z"/>
<path d="M560 435 c0 -14 5 -25 10 -25 6 0 10 11 10 25 0 14 -4 25 -10 25 -5
0 -10 -11 -10 -25z"/>
<path d="M131 432 c-1 -29 25 -92 38 -92 6 0 8 7 5 15 -4 8 -9 15 -13 15 -4 0
-8 6 -9 13 0 6 -5 26 -10 42 -9 26 -10 27 -11 7z"/>
<path d="M350 440 c0 -6 -4 -8 -10 -5 -5 3 -10 1 -10 -4 0 -6 -3 -10 -7 -9
-14 4 -53 -13 -53 -23 0 -5 16 -3 35 5 57 24 69 32 56 40 -6 4 -11 2 -11 -4z"/>
<path d="M1735 430 c-6 -18 -13 -21 -36 -18 -16 3 -29 1 -29 -4 0 -4 13 -8 30
-8 19 0 33 7 40 21 7 11 9 23 7 26 -3 2 -8 -5 -12 -17z"/>
<path d="M2469 434 c-7 -9 -22 -20 -34 -24 -14 -6 -15 -9 -4 -9 8 -1 26 10 39
24 13 14 21 25 18 25 -3 0 -12 -7 -19 -16z"/>
<path d="M494 423 c4 -5 12 -8 16 -8 5 0 16 -9 24 -20 12 -17 12 -23 -1 -48
-8 -16 -10 -26 -5 -23 6 3 12 3 15 -1 2 -5 2 -3 1 4 -2 7 1 15 7 18 5 4 7 10
4 15 -3 5 0 12 6 16 13 8 -38 53 -60 54 -8 0 -11 -3 -7 -7z"/>
<path d="M2520 418 c0 -14 8 -18 35 -18 19 0 35 4 35 9 0 4 -12 6 -26 3 -16
-3 -30 1 -35 9 -7 11 -9 10 -9 -3z"/>
<path d="M2764 418 c1 -7 17 -14 34 -16 26 -3 32 0 31 15 0 10 -3 13 -6 6 -6
-16 -49 -17 -56 -3 -3 6 -4 5 -3 -2z"/>
<path d="M165 410 c-3 -5 -1 -10 5 -10 6 0 9 -3 6 -8 -2 -4 2 -18 11 -32 8
-14 12 -17 9 -7 -3 9 -2 17 3 17 13 0 20 -39 8 -43 -13 -4 0 -27 16 -27 8 0 8
3 -2 9 -8 5 -9 11 -3 15 6 3 13 2 17 -4 4 -6 11 -8 16 -5 5 4 9 1 9 -5 0 -6 5
-8 10 -5 6 3 10 2 10 -4 0 -5 -5 -13 -10 -16 -6 -4 -8 -11 -5 -16 4 -5 2 -9
-3 -9 -6 0 -12 7 -16 15 -3 8 -11 15 -17 15 -7 0 -5 -8 6 -20 19 -21 39 -22
41 -2 1 7 2 15 3 18 0 3 13 -4 27 -15 25 -20 27 -20 40 -4 7 10 10 20 7 23 -3
3 -8 -1 -10 -7 -8 -21 -27 -15 -56 18 -14 17 -31 28 -36 24 -6 -3 -15 4 -22
16 -9 17 -8 23 2 30 7 4 10 11 6 16 -5 4 -12 2 -16 -6 -6 -9 -13 -6 -29 13
-12 16 -23 22 -27 16z"/>
<path d="M366 389 c-53 -46 -76 -99 -42 -99 7 0 6 4 -2 8 -9 6 -4 16 18 37 16
16 30 34 30 41 0 6 10 19 23 27 12 9 19 16 15 16 -4 1 -23 -13 -42 -30z"/>
<path d="M885 380 c-3 -5 -4 -14 -1 -19 4 -5 0 -12 -6 -15 -7 -2 -2 -3 11 -2
14 2 27 9 29 17 3 11 2 12 -6 1 -8 -11 -10 -11 -15 2 -3 8 -1 17 6 20 9 3 9 5
0 5 -6 1 -15 -3 -18 -9z"/>
<path d="M1291 370 c-1 -42 15 -56 23 -19 3 18 4 34 1 37 -3 3 -5 -3 -6 -14 0
-18 -1 -18 -9 1 -8 18 -9 18 -9 -5z"/>
<path d="M428 368 c-2 -23 -5 -33 -13 -51 -4 -11 -3 -23 3 -29 9 -9 10 -6 7
10 -2 12 1 22 6 22 6 0 9 6 6 13 -2 6 0 20 5 30 5 11 5 17 -2 17 -5 0 -11 -6
-12 -12z"/>
<path d="M690 331 c0 -59 16 -69 22 -14 3 24 -1 43 -9 51 -11 11 -13 5 -13
-37z"/>
<path d="M796 366 c6 -15 4 -17 -6 -11 -9 5 -11 4 -6 -3 4 -7 2 -12 -4 -12 -6
0 -8 -4 -5 -10 3 -5 0 -10 -8 -10 -10 0 -14 -9 -13 -25 0 -14 2 -25 3 -25 1 0
13 21 27 47 19 33 23 50 16 57 -8 8 -9 6 -4 -8z"/>
<path d="M823 330 c0 -30 2 -43 4 -27 2 15 2 39 0 55 -2 15 -4 2 -4 -28z"/>
<path d="M480 364 c0 -6 3 -14 8 -18 15 -15 7 -31 -23 -48 -26 -14 -27 -16 -7
-15 12 1 22 5 22 10 0 4 5 5 10 2 6 -3 10 -3 11 2 0 4 2 15 4 24 1 8 -4 24
-11 34 -8 10 -14 14 -14 9z"/>
<path d="M1102 334 c-7 -8 -17 -12 -21 -9 -9 5 -23 -36 -16 -44 3 -2 11 4 19
14 7 10 20 16 28 13 11 -5 14 0 10 18 -2 13 -5 24 -6 24 0 -1 -7 -7 -14 -16z"/>
<path d="M880 322 c0 -5 9 -12 21 -15 13 -3 19 -1 16 6 -5 15 -37 22 -37 9z"/>
<path d="M1025 298 c1 -13 6 -21 11 -19 10 3 7 21 -5 34 -4 4 -7 -3 -6 -15z"/>
<path d="M300 211 c0 -5 -7 -16 -15 -24 -12 -13 -12 -16 6 -20 12 -3 18 -3 15
0 -3 3 -1 14 4 24 7 12 7 20 0 24 -5 3 -10 2 -10 -4z"/>
<path d="M377 200 c-12 -18 -14 -26 -5 -31 7 -5 18 -3 24 2 8 7 14 6 17 -3 3
-7 4 -3 4 9 -1 12 -4 20 -8 17 -4 -2 -9 4 -11 13 -3 16 -6 15 -21 -7z"/>
<path d="M588 205 c6 -11 11 -24 12 -30 3 -18 7 -16 13 6 3 11 3 18 0 15 -3
-3 -12 2 -20 12 -13 16 -13 15 -5 -3z"/>
<path d="M934 208 c-13 -21 -11 -48 3 -48 8 0 13 12 13 30 0 32 -4 37 -16 18z"/>
<path d="M1037 213 c-4 -3 -7 -16 -7 -27 0 -17 -2 -18 -10 -6 -5 8 -10 11 -10
6 0 -5 -8 -2 -17 5 -10 7 -15 9 -11 5 4 -5 4 -14 -1 -20 -6 -8 1 -11 24 -12
28 0 34 4 38 25 6 28 4 35 -6 24z"/>
<path d="M190 203 c1 -18 18 -35 24 -24 4 6 2 11 -4 11 -6 0 -8 5 -5 10 3 6 1
10 -4 10 -6 0 -11 -3 -11 -7z"/>
<path d="M537 180 c6 -22 18 -26 28 -10 3 6 1 10 -5 10 -6 0 -8 5 -5 10 3 6 0
10 -8 10 -10 0 -13 -7 -10 -20z"/>
<path d="M664 184 c1 -8 6 -17 11 -21 4 -4 5 -2 1 5 -4 6 -2 12 3 12 6 0 11 4
11 8 0 5 -6 9 -14 9 -7 0 -13 -6 -12 -13z"/>
<path d="M700 181 c0 -12 5 -21 10 -21 6 0 10 6 10 14 0 8 -4 18 -10 21 -5 3
-10 -3 -10 -14z"/>
<path d="M758 182 c2 -7 8 -9 11 -4 3 5 13 12 21 15 8 3 3 5 -11 4 -18 -1 -25
-6 -21 -15z"/>
<path d="M850 180 c0 -14 7 -20 23 -19 12 0 16 3 9 6 -6 2 -10 8 -7 13 3 4 -2
10 -10 14 -10 4 -15 -1 -15 -14z"/>
<path d="M1060 186 c0 -21 20 -30 33 -17 9 9 7 10 -7 5 -16 -6 -18 -4 -13 9 3
9 2 17 -3 17 -6 0 -10 -6 -10 -14z"/>
<path d="M1121 186 c-9 -11 -9 -16 0 -22 8 -4 9 -3 5 4 -4 7 -3 12 3 12 5 0
12 -6 15 -12 5 -10 7 -10 12 -1 4 8 13 9 30 3 15 -6 24 -6 24 0 0 6 -5 10 -11
10 -5 0 -8 4 -5 8 8 13 -28 11 -36 -2 -6 -8 -10 -7 -16 2 -7 10 -11 10 -21 -2z"/>
<path d="M1270 192 c0 -7 -6 -12 -14 -12 -8 0 -17 -4 -20 -9 -8 -13 22 -7 36
7 6 6 9 15 5 19 -4 3 -7 1 -7 -5z"/>
<path d="M1287 180 c-3 -11 -1 -20 4 -20 4 0 13 9 19 20 8 16 8 20 -3 20 -8 0
-17 -9 -20 -20z"/>
</g>
</svg>
